<svg xmlns="http://www.w3.org/2000/svg" viewBox="0 0 416.93 51.65"><defs><style>.cls-4{fill:#1c3054}</style></defs><g id="Layer_2" data-name="Layer 2"><g id="Layer_1-2" data-name="Layer 1"><path fill="#f38f54" d="M0 25.82h25.82v25.82H0z"/><path fill="#599482" d="M0 0v25.82L25.82 0H0z"/><path d="M25.82 0v51.65a25.83 25.83 0 1 0 0-51.65Z" fill="#f2e096"/><path class="cls-4" d="M117.25 26.1c0 14-7.69 19.68-18.43 19.68H85V6.46h13.8c10.76 0 18.45 5.73 18.45 19.64Zm-18.43-14h-7.15v28.07h7.15c6.38 0 11.83-3.39 11.83-14.07s-5.45-14.02-11.83-14.02ZM128.22 5.32v7.09h-6.49V5.32Zm0 11.94v28.52h-6.49V17.26ZM160.24 17.26 149 45.78h-6.49l-11.28-28.52h6.93L146 39l7.75-21.71ZM188.76 31.49c0 9.93-6 14.84-13.91 14.84S161 41.42 161 31.49s6.05-14.77 13.9-14.77 13.86 4.9 13.86 14.77Zm-13.91-9.43c-4.2 0-7.41 2.84-7.41 9.43s3.21 9.51 7.41 9.51 7.42-2.83 7.42-9.49-3.16-9.45-7.42-9.45ZM210.25 16.72v6.1c-3.92 0-8.72 1.75-10.2 4.8v18.16h-6.49V17.26h6.28V22a14.11 14.11 0 0 1 10.41-5.28ZM218.65 31.49c0 6.66 3.22 9.49 7.41 9.49 2.73 0 5.84-1.2 6.77-5.72l6 1.14c-1.25 7-6.82 9.93-12.82 9.93-7.79 0-13.9-4.8-13.9-14.84s6.16-14.77 13.89-14.77c6.05 0 11.62 2.94 12.87 9.92l-6 1.15c-.88-4.53-4-5.73-6.77-5.73-4.23 0-7.45 2.84-7.45 9.43ZM269.91 32.91H249c.38 5.57 3.33 8.18 7.8 8.18 3.38 0 5.67-1.42 7.31-4.74l5.34 2.34c-2.4 5.18-6.82 7.64-12.82 7.64-8.07 0-14.12-4.91-14.12-14.84s6.05-14.77 14.07-14.77 13.31 4.85 13.31 14Zm-20.73-4.41h14.4c-.6-4.75-3.11-6.6-7-6.6-3.58 0-6.58 1.8-7.4 6.6ZM281 38.37v7.41h-6.55v-7.41ZM291.11 31.49c0 6.66 3.22 9.49 7.42 9.49 2.73 0 5.84-1.2 6.76-5.72l6.06 1.14c-1.26 7-6.82 9.93-12.82 9.93-7.8 0-13.9-4.8-13.9-14.84s6.1-14.77 13.85-14.77c6 0 11.61 2.94 12.87 9.92l-6.06 1.15c-.87-4.53-4-5.73-6.76-5.73-4.2 0-7.42 2.84-7.42 9.43ZM342.81 31.49c0 9.93-6.05 14.84-13.91 14.84S315 41.42 315 31.49s6.05-14.77 13.9-14.77 13.91 4.9 13.91 14.77Zm-13.91-9.43c-4.2 0-7.41 2.84-7.41 9.43S324.7 41 328.9 41s7.42-2.83 7.42-9.49-3.16-9.45-7.42-9.45ZM390.52 27.46v18.32H384V28.39c0-4.37-2-6.17-5.72-6.17a7.17 7.17 0 0 0-6.05 3.22c.05.66.1 1.31.1 2v18.34h-6.49V28.39c0-4.37-2-6.17-5.78-6.17a7.1 7.1 0 0 0-5.94 3.11v20.45h-6.52V17.26h6.27v3.38a10.45 10.45 0 0 1 8.24-3.92c4.36 0 7.58 1.63 9.1 5a10.79 10.79 0 0 1 9.11-5c6.33 0 10.2 3.49 10.2 10.74ZM402.28 18.51h-4.47v9.38h-1.92v-9.38h-4.47v-1.69h10.86Zm14.65-1.69v11.07h-1.84v-8.57l-3.86 8.57h-1.61l-3.91-8.69v8.69H404V16.82h2.84l3.62 8.18 3.68-8.18Z"/></g></g></svg>