<svg width="560" height="104" viewBox="0 0 560 104" fill="none" xmlns="http://www.w3.org/2000/svg">
<path d="M0 51.9902H44.6229V103.97H0V51.9902Z" fill="#F38F54"/>
<path d="M0 0.00976562V51.9896L44.6229 0.00976562H0Z" fill="#599482"/>
<path d="M44.6226 0.0100665V103.99C50.5576 104.126 56.4562 102.882 61.9734 100.33C67.4907 97.7785 72.5156 93.9707 76.7541 89.1295C80.9927 84.2883 84.3598 78.511 86.6585 72.1356C88.9571 65.7602 90.141 58.9148 90.141 52C90.141 45.0852 88.9571 38.2398 86.6585 31.8644C84.3598 25.489 80.9927 19.7117 76.7541 14.8705C72.5156 10.0293 67.4907 6.22148 61.9734 3.66984C56.4562 1.11821 50.5576 -0.125984 44.6226 0.0100665V0.0100665Z" fill="#F2E096"/>
<path d="M186.605 36.0388C186.605 52.7211 177.023 59.4894 163.641 59.4894H146.422V12.6358H163.616C177.023 12.6358 186.605 19.4636 186.605 36.0388ZM163.641 19.3564H154.733V52.8046H163.641C171.591 52.8046 178.381 48.765 178.381 36.0388C178.381 23.3125 171.591 19.3326 163.641 19.3326V19.3564ZM200.273 11.2773V19.7258H192.187V11.2773H200.273ZM200.273 25.505V59.4894H192.187V25.505H200.273ZM240.169 25.505L226.165 59.4894H218.078L204.024 25.505H212.658L222.427 51.4104L232.083 25.5408L240.169 25.505ZM275.705 42.4615C275.705 54.2941 268.229 60.1448 258.373 60.1448C248.517 60.1448 241.116 54.2941 241.116 42.4615C241.116 30.6289 248.654 24.8616 258.435 24.8616C268.216 24.8616 275.705 30.7004 275.705 42.4615ZM258.373 31.2247C253.14 31.2247 249.14 34.6088 249.14 42.4615C249.14 50.3141 253.14 53.7936 258.373 53.7936C263.606 53.7936 267.618 50.4214 267.618 42.4853C267.618 34.5493 263.681 31.2247 258.373 31.2247ZM302.481 24.8616V32.1303C297.597 32.1303 291.616 34.2156 289.772 37.85V59.4894H281.685V25.505H289.51V31.1532C291.078 29.2802 293.046 27.7497 295.283 26.6646C297.521 25.5794 299.975 24.9646 302.481 24.8616ZM312.947 42.4615C312.947 50.3975 316.959 53.7698 322.18 53.7698C325.581 53.7698 329.456 52.3398 330.615 46.9538L338.091 48.3122C336.533 56.6534 329.593 60.1448 322.117 60.1448C312.411 60.1448 304.798 54.4251 304.798 42.4615C304.798 30.4978 312.474 24.8616 322.105 24.8616C329.643 24.8616 336.583 28.3649 338.141 36.6822L330.665 38.0526C329.568 32.6546 325.681 31.2247 322.23 31.2247C316.959 31.2247 312.947 34.6088 312.947 42.4615ZM376.816 44.1536H350.763C351.236 50.7908 354.912 53.9008 360.481 53.9008C364.693 53.9008 367.546 52.2088 369.589 48.2527L376.243 51.041C373.252 57.2135 367.745 60.1448 360.269 60.1448C350.214 60.1448 342.676 54.2941 342.676 42.4615C342.676 30.6289 350.214 24.8616 360.207 24.8616C370.2 24.8616 376.791 30.6408 376.791 41.544L376.816 44.1536ZM350.987 38.8986H368.929C368.181 33.2385 365.054 31.0341 360.207 31.0341C355.746 31.0341 352.008 33.1789 350.987 38.8986V38.8986ZM390.634 50.6597V59.4894H382.473V50.6597H390.634ZM403.231 42.4615C403.231 50.3975 407.243 53.7698 412.476 53.7698C415.877 53.7698 419.752 52.3398 420.899 46.9538L428.449 48.3122C426.879 56.6534 419.952 60.1448 412.476 60.1448C402.757 60.1448 395.157 54.4251 395.157 42.4615C395.157 30.4978 402.757 24.8616 412.414 24.8616C419.889 24.8616 426.879 28.3649 428.449 36.6822L420.899 38.0526C419.815 32.6546 415.915 31.2247 412.476 31.2247C407.243 31.2247 403.231 34.6088 403.231 42.4615V42.4615ZM467.648 42.4615C467.648 54.2941 460.11 60.1448 450.316 60.1448C440.523 60.1448 432.997 54.2941 432.997 42.4615C432.997 30.6289 440.535 24.8616 450.316 24.8616C460.097 24.8616 467.648 30.7004 467.648 42.4615ZM450.316 31.2247C445.083 31.2247 441.084 34.6088 441.084 42.4615C441.084 50.3141 445.083 53.7936 450.316 53.7936C455.549 53.7936 459.561 50.4214 459.561 42.4853C459.561 34.5493 455.624 31.2247 450.316 31.2247ZM527.094 37.6593V59.4894H518.97V38.7675C518.97 33.5602 516.478 31.4154 511.843 31.4154C510.351 31.4022 508.88 31.7465 507.563 32.4167C506.247 33.0869 505.126 34.0618 504.305 35.2523C504.367 36.0388 504.429 36.8133 504.429 37.6355V59.4894H496.343V38.7675C496.343 33.5602 493.851 31.4154 489.141 31.4154C487.684 31.4022 486.245 31.7336 484.954 32.3802C483.663 33.0267 482.559 33.9683 481.74 35.1212V59.4894H473.616V25.505H481.428V29.5326C482.659 28.0622 484.222 26.8779 486.001 26.0688C487.779 25.2597 489.726 24.8469 491.695 24.8616C497.128 24.8616 501.14 26.8039 503.034 30.8196C504.248 28.9929 505.925 27.4891 507.91 26.4476C509.894 25.4061 512.121 24.8606 514.385 24.8616C522.272 24.8616 527.094 29.0202 527.094 37.6593V37.6593ZM541.746 26.9945H536.177V38.1717H533.784V26.9945H528.215V24.9807H541.746V26.9945ZM560 24.9807V38.1717H557.707V27.9597L552.898 38.1717H550.892L546.02 27.8167V38.1717H543.889V24.9807H547.428L551.938 34.728L556.524 24.9807H560Z" fill="#1C3054"/>
</svg>
