<svg xmlns="http://www.w3.org/2000/svg" width="68.616" height="69.717" viewBox="0 0 68.616 69.717"><g transform="translate(-915.515 -1355.5)"><g transform="translate(917 1357)"><g transform="translate(19.001 28.706)"><path d="M8336.446-4262.235a1.393,1.393,0,0,1-1.041,1.607c-8.154,3.2-17.22,2.326-25.479,0a1.3,1.3,0,0,1-1.117-1.526c.062-2.344.006-4.69.028-7.036.345-10.236,8.829-11.257,17.169-10.675,7.759.065,10.344,5.848,10.44,13.781S8336.446-4262.235,8336.446-4262.235Z" transform="translate(-8308.808 4296.552)" fill="none" stroke="#f48f54" stroke-linecap="round" stroke-width="3"/><path d="M8349.192-4387.994c.348-10.729,16.146-10.475,16.151.262C8364.946-4377.206,8349.26-4377.411,8349.192-4387.994Z" transform="translate(-8343.424 4395.915)" fill="none" stroke="#f48f54" stroke-linecap="round" stroke-width="3"/></g><g transform="translate(36.469 0)"><path d="M8485.25-4391.121c10.067-.494,19.01.272,21.159,13.046.593,5.044.043,10.287.224,15.4-6.208,1.3-9.114,2.446-14.5,3.241" transform="translate(-8477.514 4420.602)" fill="none" stroke="#f48f54" stroke-linecap="round" stroke-width="3"/><circle cx="13.06" cy="13.06" r="13.06" fill="none" stroke="#f48f54" stroke-linecap="round" stroke-width="3"/></g><g transform="translate(0 0)"><path d="M8197.232-4391.121c-10.067-.494-19.009.272-21.158,13.046-.593,5.044-.043,10.287-.225,15.4,6.208,1.3,9.115,2.446,14.5,3.241" transform="translate(-8175.79 4420.602)" fill="none" stroke="#f48f54" stroke-linecap="round" stroke-width="3"/><circle cx="13.06" cy="13.06" r="13.06" transform="translate(3.06)" fill="none" stroke="#f48f54" stroke-linecap="round" stroke-width="3"/></g></g></g></svg>
