<svg width="560" height="106" viewBox="0 0 560 106" fill="none" xmlns="http://www.w3.org/2000/svg">
<path d="M0 52.9902H46.1989V104.98H0V52.9902Z" fill="#F38F54"/>
<path d="M0 1V52.9899L46.1989 1H0Z" fill="#599482"/>
<path d="M46.1987 1.0003V105C52.3433 105.136 58.4504 103.892 64.1624 101.34C69.8745 98.7877 75.0769 94.9791 79.4652 90.137C83.8535 85.2949 87.3395 79.5164 89.7193 73.1398C92.0991 66.7632 93.3249 59.9165 93.3249 53.0003C93.3249 46.0841 92.0991 39.2374 89.7193 32.8608C87.3395 26.4842 83.8535 20.7057 79.4652 15.8636C75.0769 11.0215 69.8745 7.21292 64.1624 4.66079C58.4504 2.10866 52.3433 0.864226 46.1987 1.0003V1.0003Z" fill="#F2E096"/>
<path d="M183.515 38.3353C183.515 55.4043 173.854 62.3294 160.362 62.3294H143V14.3899H160.337C173.854 14.3899 183.515 21.376 183.515 38.3353ZM160.362 21.2663H151.379V55.4896H160.362C168.377 55.4896 175.224 51.3565 175.224 38.3353C175.224 25.3141 168.377 21.2419 160.362 21.2419V21.2663ZM197.297 13V21.6442H189.144V13H197.297ZM197.297 27.5574V62.3294H189.144V27.5574H197.297ZM237.523 27.5574L223.402 62.3294H215.249L201.078 27.5574H209.784L219.634 54.0632L229.37 27.594L237.523 27.5574ZM273.353 44.9069C273.353 57.0137 265.815 63 255.878 63C245.94 63 238.478 57.0137 238.478 44.9069C238.478 32.8 246.079 26.899 255.94 26.899C265.802 26.899 273.353 32.8732 273.353 44.9069ZM255.878 33.4097C250.601 33.4097 246.568 36.8722 246.568 44.9069C246.568 52.9415 250.601 56.5016 255.878 56.5016C261.154 56.5016 265.199 53.0512 265.199 44.9312C265.199 36.8113 261.229 33.4097 255.878 33.4097ZM300.35 26.899V34.3363C295.426 34.3363 289.395 36.4699 287.536 40.1885V62.3294H279.383V27.5574H287.272V33.3365C288.853 31.4201 290.837 29.8542 293.093 28.7438C295.349 27.6335 297.823 27.0045 300.35 26.899ZM310.903 44.9069C310.903 53.0268 314.948 56.4772 320.212 56.4772C323.642 56.4772 327.549 55.0141 328.717 49.5033L336.255 50.8932C334.685 59.4277 327.687 63 320.149 63C310.363 63 302.687 57.1478 302.687 44.9069C302.687 32.6659 310.426 26.899 320.137 26.899C327.737 26.899 334.735 30.4835 336.305 38.9937L328.767 40.3958C327.662 34.8727 323.742 33.4097 320.262 33.4097C314.948 33.4097 310.903 36.8722 310.903 44.9069ZM375.3 46.6381H349.031C349.509 53.4292 353.215 56.6113 358.83 56.6113C363.077 56.6113 365.954 54.88 368.014 50.8322L374.723 53.6852C371.707 60.0007 366.155 63 358.617 63C348.479 63 340.878 57.0137 340.878 44.9069C340.878 32.8 348.479 26.899 358.554 26.899C368.629 26.899 375.275 32.8122 375.275 43.9681L375.3 46.6381ZM349.258 41.2614H367.348C366.594 35.4701 363.441 33.2146 358.554 33.2146C354.057 33.2146 350.288 35.4092 349.258 41.2614ZM389.233 53.295V62.3294H381.004V53.295H389.233ZM401.934 44.9069C401.934 53.0268 405.979 56.4772 411.255 56.4772C414.685 56.4772 418.592 55.0141 419.748 49.5033L427.361 50.8932C425.778 59.4277 418.793 63 411.255 63C401.456 63 393.793 57.1478 393.793 44.9069C393.793 32.6659 401.456 26.899 411.193 26.899C418.73 26.899 425.778 30.4835 427.361 38.9937L419.748 40.3958C418.655 34.8727 414.723 33.4097 411.255 33.4097C405.979 33.4097 401.934 36.8722 401.934 44.9069ZM466.884 44.9069C466.884 57.0137 459.283 63 449.409 63C439.534 63 431.946 57.0137 431.946 44.9069C431.946 32.8 439.547 26.899 449.409 26.899C459.271 26.899 466.884 32.8732 466.884 44.9069ZM449.409 33.4097C444.132 33.4097 440.1 36.8722 440.1 44.9069C440.1 52.9415 444.132 56.5016 449.409 56.5016C454.685 56.5016 458.731 53.0512 458.731 44.9312C458.731 36.8113 454.761 33.4097 449.409 33.4097ZM526.821 39.9934V62.3294H518.63V41.1273C518.63 35.7993 516.118 33.6047 511.444 33.6047C509.941 33.5913 508.457 33.9435 507.13 34.6293C505.802 35.315 504.672 36.3125 503.844 37.5306C503.907 38.3353 503.97 39.1278 503.97 39.969V62.3294H495.816V41.1273C495.816 35.7993 493.304 33.6047 488.555 33.6047C487.085 33.5913 485.635 33.9304 484.333 34.5919C483.032 35.2534 481.918 36.2168 481.092 37.3965V62.3294H472.901V27.5574H480.778V31.6784C482.019 30.1739 483.595 28.9621 485.388 28.1342C487.181 27.3064 489.145 26.8841 491.13 26.899C496.608 26.899 500.653 28.8864 502.562 32.9951C503.787 31.1262 505.478 29.5875 507.479 28.5219C509.48 27.4562 511.725 26.898 514.007 26.899C521.96 26.899 526.821 31.1541 526.821 39.9934ZM541.595 29.0814H535.98V40.5177H533.568V29.0814H527.952V27.021H541.595V29.0814ZM560 27.021V40.5177H557.688V30.069L552.839 40.5177H550.817L545.904 29.9227V40.5177H543.756V27.021H547.324L551.872 36.9941L556.495 27.021H560Z" fill="white"/>
</svg>
