<svg xmlns="http://www.w3.org/2000/svg" width="110.294" height="69.988" viewBox="0 0 110.294 69.988"><g transform="translate(-6598.261 5497.913)"><path d="M6688.47-5496.413h-48.957a18.585,18.585,0,0,0-18.585,18.585v11.918a60.188,60.188,0,0,1-18.542,36.485h86.083a18.586,18.586,0,0,0,18.585-18.586v-29.817A18.586,18.586,0,0,0,6688.47-5496.413Z" transform="translate(0)" fill="none" stroke="#f48f54" stroke-linecap="round" stroke-width="3"/><g transform="translate(6635.867 -5486.382)"><path d="M6924.075-5411.816" transform="translate(-6889.412 5419.706)" fill="none" stroke="#f48f54" stroke-linecap="round" stroke-width="3"/><g transform="translate(0 4.997)"><path d="M6782.365-5420.781s4.875,4.875,10.263-.513c0,0,6.8-7.056,11.033-2.822" transform="translate(-6777.72 5425.469)" fill="none" stroke="#f48f54" stroke-linecap="round" stroke-width="3"/><path d="M6773.887-5380.916,6780.3-5394l6.927,13.342" transform="translate(-6771.038 5400.667)" fill="none" stroke="#f48f54" stroke-linecap="round" stroke-linejoin="round" stroke-width="3"/><path d="M6760.464-5328.243h18.729s.129,9.236-9.107,9.108C6759.438-5319.521,6760.464-5328.243,6760.464-5328.243Z" transform="translate(-6760.437 5348.838)" fill="none" stroke="#f48f54" stroke-linecap="round" stroke-linejoin="round" stroke-width="3"/></g><g transform="translate(28.447 4.997)"><path d="M6916.024-5420.781s-4.875,4.875-10.263-.513c0,0-6.8-7.056-11.033-2.822" transform="translate(-6894.729 5425.469)" fill="none" stroke="#f48f54" stroke-linecap="round" stroke-width="3"/><path d="M6954.1-5380.916,6947.683-5394l-6.928,13.342" transform="translate(-6931.005 5400.667)" fill="none" stroke="#f48f54" stroke-linecap="round" stroke-linejoin="round" stroke-width="3"/><path d="M6947.372-5328.243h-18.73s-.128,9.236,9.108,9.108C6948.4-5319.521,6947.372-5328.243,6947.372-5328.243Z" transform="translate(-6921.458 5348.838)" fill="none" stroke="#f48f54" stroke-linecap="round" stroke-linejoin="round" stroke-width="3"/></g><line y2="38.87" transform="translate(27.159 0)" fill="none" stroke="#f48f54" stroke-linecap="round" stroke-linejoin="round" stroke-width="3"/><line x2="20.397" transform="translate(16.96 38.817)" fill="none" stroke="#f48f54" stroke-linecap="round" stroke-linejoin="round" stroke-width="3"/><line x2="32.713" transform="translate(10.803 44.397)" fill="none" stroke="#f48f54" stroke-linecap="round" stroke-linejoin="round" stroke-width="3"/></g></g></svg>
