<svg xmlns="http://www.w3.org/2000/svg" width="107" height="18" viewBox="0 0 106 18"><path style="fill:#f58f54" d="m13.313 17.152-5.07-2.707-4.99 2.867.876-5.921L0 7.277l5.61-.953L8.046.914l2.594 5.328 5.636.774-4.007 4.246ZM35.414 17.152l-5.07-2.707-4.989 2.867.875-5.921-4.128-4.114 5.609-.953 2.437-5.41 2.594 5.328 5.637.774-4.012 4.246ZM57.512 17.152l-5.07-2.707-4.989 2.867.875-5.921L44.2 7.277l5.61-.953 2.437-5.41 2.594 5.328 5.637.774-4.008 4.246ZM79.613 17.152l-5.07-2.707-4.988 2.867.875-5.921-4.13-4.114 5.61-.953 2.438-5.41 2.593 5.328 5.633.774-4.008 4.246ZM101.71 17.152l-5.07-2.707-4.988 2.867.875-5.921-4.129-4.114 5.61-.953 2.437-5.41 2.594 5.328 5.637.774-4.012 4.246Zm0 0"/></svg>